<svg xmlns="http://www.w3.org/2000/svg" xmlns:xlink="http://www.w3.org/1999/xlink" width="1920" zoomAndPan="magnify" viewBox="0 0 1440 809.999993" height="1080" preserveAspectRatio="xMidYMid meet" version="1.0"><defs><g/><clipPath id="0852a1f4a3"><path d="M 589 225.3125 L 848 225.3125 L 848 408.3125 L 589 408.3125 Z M 589 225.3125 " clip-rule="nonzero"/></clipPath><clipPath id="2e2f09f909"><rect x="0" width="578" y="0" height="200"/></clipPath></defs><g clip-path="url(#0852a1f4a3)"><path fill="#f14624" d="M 737.949219 361.960938 C 749.527344 350.800781 749.742188 337.488281 749.742188 337.488281 L 682.59375 337.488281 C 681.753906 337.4375 680.890625 337.402344 680.027344 337.402344 C 679.167969 337.402344 678.304688 337.4375 677.445312 337.488281 L 677.390625 337.5 C 656.195312 338.847656 636.5625 356.273438 632.824219 377.574219 L 642.527344 377.574219 C 639.585938 394.410156 650.84375 408.054688 667.664062 408.054688 C 684.5 408.054688 700.523438 394.410156 703.476562 377.574219 L 744.089844 377.574219 C 752.78125 377.574219 761.351562 374.957031 768.902344 370.476562 C 768.09375 372.78125 767.460938 375.152344 767.039062 377.574219 L 776.734375 377.574219 C 773.792969 394.410156 785.046875 408.054688 801.878906 408.054688 C 818.703125 408.054688 834.738281 394.410156 837.679688 377.574219 L 847.382812 377.574219 C 851.261719 355.390625 836.429688 337.402344 814.234375 337.402344 C 813.738281 337.402344 813.242188 337.414062 812.738281 337.4375 C 815.589844 319.945312 810.796875 304.664062 801.179688 296.175781 L 800.910156 295.9375 L 807.234375 297.144531 C 814.039062 298.449219 818.292969 301.207031 821.828125 294.378906 C 824.972656 288.28125 826.089844 282.25 824.800781 276.199219 C 823.710938 271.09375 820.867188 272.125 815.667969 272.125 L 793.339844 272.125 C 787.394531 272.125 781.664062 276.996094 780.621094 282.949219 C 780.320312 284.726562 780.480469 286.3125 781.007812 287.679688 C 777.269531 288.710938 773.296875 288.617188 770.183594 285.609375 C 765.207031 280.808594 763.960938 272.6875 764.152344 266.179688 C 773.542969 264.769531 781.914062 256.867188 783.582031 247.335938 C 783.734375 246.472656 783.820312 245.621094 783.863281 244.792969 L 790.207031 244.792969 C 791.960938 244.792969 793.640625 243.359375 793.953125 241.605469 C 794.253906 239.847656 793.082031 238.40625 791.316406 238.40625 L 785.132812 238.40625 C 786.15625 231.191406 781.191406 225.351562 773.910156 225.351562 L 763.042969 225.351562 C 755.613281 225.351562 748.472656 231.425781 747.167969 238.859375 L 746.242188 244.125 C 745.886719 245.167969 745.605469 246.234375 745.414062 247.335938 C 744.628906 251.867188 745.476562 256.035156 747.546875 259.308594 C 745.78125 261.527344 743.875 263.746094 742.191406 265.296875 C 737.390625 269.769531 713.46875 293.40625 711.820312 313.050781 C 711.820312 313.050781 711.542969 315.035156 711.597656 317.523438 L 671.53125 317.523438 C 663.183594 317.523438 655.160156 324.351562 653.695312 332.695312 L 749.90625 332.695312 C 750.011719 332.0625 750.078125 331.4375 750.109375 330.832031 C 752.789062 332.429688 754.34375 334.59375 753.953125 337.609375 C 752.757812 346.933594 747.160156 357.253906 743.410156 363.292969 L 736.441406 363.292969 C 737.292969 362.453125 737.949219 361.960938 737.949219 361.960938 Z M 645.824219 272.480469 L 647.082031 265.277344 L 593.375 265.277344 C 591.390625 265.277344 589.484375 266.890625 589.140625 268.875 C 588.796875 270.855469 590.132812 272.480469 592.113281 272.480469 Z M 642.882812 289.285156 L 644.144531 282.078125 L 610.238281 282.078125 C 608.257812 282.078125 606.351562 283.703125 606.007812 285.6875 C 605.660156 287.65625 606.996094 289.285156 608.980469 289.285156 Z M 639.910156 306.289062 L 641.171875 299.082031 L 625.867188 299.082031 C 623.886719 299.082031 621.980469 300.699219 621.632812 302.679688 C 621.289062 304.664062 622.625 306.289062 624.605469 306.289062 Z M 688.558594 313.34375 L 653.070312 313.34375 C 647.664062 313.34375 644.023438 308.925781 644.972656 303.519531 L 651.175781 268.035156 C 652.125 262.636719 657.316406 258.222656 662.710938 258.222656 L 698.199219 258.222656 C 703.605469 258.222656 707.246094 262.636719 706.308594 268.035156 L 700.09375 303.519531 C 699.144531 308.925781 693.953125 313.34375 688.558594 313.34375 Z M 786.878906 296.304688 L 780.15625 334.734375 C 778.777344 342.574219 774.320312 349.722656 768.234375 354.90625 C 765.078125 357.574219 761.503906 359.730469 757.691406 361.183594 C 757.820312 360.453125 757.992188 359.75 758.21875 359.148438 C 759.296875 356.132812 767.867188 346.09375 770.667969 335.820312 C 773.46875 325.554688 761.148438 314.292969 754.707031 308.367188 C 754.707031 308.367188 757.980469 304.359375 760.265625 297.664062 C 760.265625 297.664062 767.957031 307.980469 786.878906 296.304688 Z M 660.761719 377.574219 L 685.253906 377.574219 C 684.066406 384.339844 677.628906 389.820312 670.863281 389.820312 C 664.101562 389.820312 659.578125 384.339844 660.761719 377.574219 Z M 794.964844 377.574219 L 819.457031 377.574219 C 818.273438 384.339844 811.832031 389.820312 805.070312 389.820312 C 798.304688 389.820312 793.78125 384.339844 794.964844 377.574219 Z M 794.964844 377.574219 " fill-opacity="1" fill-rule="evenodd"/></g><g transform="matrix(1, 0, 0, 1, 430, 366)"><g clip-path="url(#2e2f09f909)"><g fill="#000000" fill-opacity="1"><g transform="translate(2.987201, 131.881223)"><g><path d="M 40.125 14.0625 C 38.125 14.0625 37.125 13.484375 37.125 12.328125 C 37.125 10.003906 40.863281 3.523438 48.34375 -7.109375 C 51.71875 -11.742188 55.328125 -16.507812 59.171875 -21.40625 C 63.015625 -26.300781 67.046875 -31.28125 71.265625 -36.34375 C 67.359375 -35.601562 63.929688 -35.070312 60.984375 -34.75 C 58.035156 -34.4375 55.664062 -34.28125 53.875 -34.28125 C 53.457031 -34.382812 53.25 -34.648438 53.25 -35.078125 C 53.25 -35.816406 53.878906 -36.710938 55.140625 -37.765625 C 56.398438 -38.816406 57.453125 -39.34375 58.296875 -39.34375 C 58.515625 -39.34375 59.28125 -39.34375 60.59375 -39.34375 C 61.90625 -39.34375 63.722656 -39.394531 66.046875 -39.5 L 74.109375 -39.5 C 75.679688 -41.601562 78.441406 -45.445312 82.390625 -51.03125 C 86.347656 -56.613281 91.535156 -63.9375 97.953125 -73 C 103.015625 -80.257812 105.546875 -86.265625 105.546875 -91.015625 C 105.546875 -98.378906 100.066406 -102.0625 89.109375 -102.0625 C 82.472656 -102.0625 75.441406 -100.847656 68.015625 -98.421875 C 60.585938 -96.003906 53.316406 -92.769531 46.203125 -88.71875 C 39.097656 -84.664062 32.753906 -80.269531 27.171875 -75.53125 C 20.328125 -69.726562 14.898438 -63.535156 10.890625 -56.953125 C 6.890625 -50.367188 4.890625 -44.5 4.890625 -39.34375 C 4.890625 -30.382812 10.738281 -26.273438 22.4375 -27.015625 C 28.863281 -27.546875 35.128906 -31.390625 41.234375 -38.546875 C 47.140625 -45.609375 49.773438 -51.613281 49.140625 -56.5625 C 51.878906 -56.039062 53.25 -54.410156 53.25 -51.671875 C 53.25 -47.140625 50.40625 -41.925781 44.71875 -36.03125 C 40.820312 -32.125 36.472656 -29.007812 31.671875 -26.6875 C 26.878906 -24.375 21.851562 -23.21875 16.59375 -23.21875 C 10.6875 -23.21875 6.128906 -24.769531 2.921875 -27.875 C -0.285156 -30.988281 -1.890625 -35.128906 -1.890625 -40.296875 C -1.890625 -52.722656 5.691406 -65.253906 20.859375 -77.890625 C 27.492188 -83.367188 34.65625 -88.132812 42.34375 -92.1875 C 50.03125 -96.25 57.925781 -99.410156 66.03125 -101.671875 C 74.144531 -103.929688 82.101562 -105.0625 89.90625 -105.0625 C 97.59375 -105.0625 103.703125 -103.769531 108.234375 -101.1875 C 112.765625 -98.613281 115.03125 -94.851562 115.03125 -89.90625 C 115.03125 -85.375 112.972656 -80.160156 108.859375 -74.265625 C 107.492188 -72.148438 104.703125 -68.195312 100.484375 -62.40625 C 96.273438 -56.613281 90.585938 -49.03125 83.421875 -39.65625 L 92.59375 -39.34375 C 95.007812 -39.238281 96.898438 -39.160156 98.265625 -39.109375 C 99.640625 -39.054688 100.429688 -39.082031 100.640625 -39.1875 L 101.59375 -39.1875 C 103.488281 -39.1875 104.4375 -38.816406 104.4375 -38.078125 C 104.4375 -36.597656 102.382812 -35.859375 98.28125 -35.859375 C 98.175781 -35.859375 97.617188 -35.859375 96.609375 -35.859375 C 95.609375 -35.859375 94.21875 -35.914062 92.4375 -36.03125 C 90.851562 -36.132812 89.425781 -36.1875 88.15625 -36.1875 C 86.894531 -36.1875 85.789062 -36.1875 84.84375 -36.1875 C 82.101562 -35.96875 80.472656 -35.703125 79.953125 -35.390625 C 77.628906 -32.441406 75.070312 -29.125 72.28125 -25.4375 C 69.488281 -21.75 66.515625 -17.691406 63.359375 -13.265625 C 55.035156 -1.785156 50.875 4.953125 50.875 6.953125 C 50.875 7.585938 51.269531 7.691406 52.0625 7.265625 C 52.851562 6.847656 53.40625 6.53125 53.71875 6.3125 C 54.875 6.3125 55.453125 6.472656 55.453125 6.796875 C 55.453125 7.316406 54.296875 8.101562 51.984375 9.15625 L 47.5625 11.53125 C 45.5625 13.21875 43.082031 14.0625 40.125 14.0625 Z M 40.125 14.0625 "/></g></g></g><g fill="#000000" fill-opacity="1"><g transform="translate(102.838619, 131.881223)"><g><path d="M 6.796875 0.3125 C 4.160156 0.3125 2.101562 -0.921875 0.625 -3.390625 C -0.84375 -5.867188 -1.578125 -8.269531 -1.578125 -10.59375 C -1.578125 -16.90625 3.003906 -25.75 12.171875 -37.125 C 21.429688 -48.613281 28.910156 -54.359375 34.609375 -54.359375 C 39.972656 -54.359375 42.65625 -51.507812 42.65625 -45.8125 C 42.65625 -44.976562 42.578125 -44.085938 42.421875 -43.140625 C 42.265625 -42.191406 42.082031 -41.1875 41.875 -40.125 C 42.082031 -39.8125 42.609375 -39.65625 43.453125 -39.65625 C 46.296875 -39.65625 49.664062 -40.65625 53.5625 -42.65625 C 53.457031 -40.863281 49.296875 -38.285156 41.078125 -34.921875 C 42.234375 -31.441406 38.757812 -24.804688 30.65625 -15.015625 C 22.332031 -4.796875 15.222656 0.3125 9.328125 0.3125 Z M 9.640625 -4.421875 C 14.171875 -4.421875 19.960938 -8.582031 27.015625 -16.90625 C 33.859375 -25.019531 37.28125 -30.863281 37.28125 -34.4375 C 35.601562 -35.382812 33.5 -37.8125 30.96875 -41.71875 C 27.382812 -41.71875 22.222656 -37.394531 15.484375 -28.75 C 8.847656 -20.320312 5.632812 -13.847656 5.84375 -9.328125 C 5.945312 -6.054688 7.210938 -4.421875 9.640625 -4.421875 Z M 9.640625 -4.421875 "/></g></g></g><g fill="#000000" fill-opacity="1"><g transform="translate(147.234583, 131.881223)"><g><path d="M 6.796875 0.3125 C 4.160156 0.3125 2.101562 -0.921875 0.625 -3.390625 C -0.84375 -5.867188 -1.578125 -8.269531 -1.578125 -10.59375 C -1.578125 -16.90625 3.003906 -25.75 12.171875 -37.125 C 21.429688 -48.613281 28.910156 -54.359375 34.609375 -54.359375 C 39.972656 -54.359375 42.65625 -51.507812 42.65625 -45.8125 C 42.65625 -44.976562 42.578125 -44.085938 42.421875 -43.140625 C 42.265625 -42.191406 42.082031 -41.1875 41.875 -40.125 C 42.082031 -39.8125 42.609375 -39.65625 43.453125 -39.65625 C 46.296875 -39.65625 49.664062 -40.65625 53.5625 -42.65625 C 53.457031 -40.863281 49.296875 -38.285156 41.078125 -34.921875 C 42.234375 -31.441406 38.757812 -24.804688 30.65625 -15.015625 C 22.332031 -4.796875 15.222656 0.3125 9.328125 0.3125 Z M 9.640625 -4.421875 C 14.171875 -4.421875 19.960938 -8.582031 27.015625 -16.90625 C 33.859375 -25.019531 37.28125 -30.863281 37.28125 -34.4375 C 35.601562 -35.382812 33.5 -37.8125 30.96875 -41.71875 C 27.382812 -41.71875 22.222656 -37.394531 15.484375 -28.75 C 8.847656 -20.320312 5.632812 -13.847656 5.84375 -9.328125 C 5.945312 -6.054688 7.210938 -4.421875 9.640625 -4.421875 Z M 9.640625 -4.421875 "/></g></g></g><g fill="#000000" fill-opacity="1"><g transform="translate(191.630547, 131.881223)"><g><path d="M 10.59375 0.796875 C 7.425781 0.796875 4.734375 -0.0703125 2.515625 -1.8125 C 0.304688 -3.550781 -0.953125 -5.6875 -1.265625 -8.21875 C -1.679688 -11.582031 -1.179688 -14.976562 0.234375 -18.40625 C 1.660156 -21.832031 3.609375 -25.125 6.078125 -28.28125 C 8.554688 -31.4375 11.21875 -34.382812 14.0625 -37.125 C 25.226562 -48.289062 35.285156 -53.875 44.234375 -53.875 C 47.296875 -53.875 49.351562 -53.085938 50.40625 -51.515625 C 50.820312 -50.984375 51.296875 -49.769531 51.828125 -47.875 C 63.617188 -67.039062 71.832031 -76.625 76.46875 -76.625 C 77.519531 -76.625 78.625 -76.359375 79.78125 -75.828125 C 80.945312 -75.304688 81.53125 -74.625 81.53125 -73.78125 C 81.53125 -73.257812 81.265625 -72.578125 80.734375 -71.734375 C 77.578125 -67.835938 74.414062 -63.96875 71.25 -60.125 C 68.09375 -56.28125 64.988281 -52.40625 61.9375 -48.5 C 56.769531 -41.96875 52.609375 -36.28125 49.453125 -31.4375 C 46.296875 -26.59375 44.03125 -22.488281 42.65625 -19.125 C 42.238281 -18.0625 41.84375 -16.765625 41.46875 -15.234375 C 41.101562 -13.710938 40.921875 -12.164062 40.921875 -10.59375 C 40.921875 -8.582031 41.34375 -6.835938 42.1875 -5.359375 C 43.03125 -3.890625 44.554688 -3.15625 46.765625 -3.15625 C 50.242188 -3.15625 54.507812 -4.835938 59.5625 -8.203125 C 64.625 -11.578125 70.523438 -17.113281 77.265625 -24.8125 C 77.679688 -25.226562 78.070312 -25.59375 78.4375 -25.90625 C 78.8125 -26.226562 79.207031 -26.441406 79.625 -26.546875 C 80.570312 -26.753906 81.046875 -26.539062 81.046875 -25.90625 C 81.046875 -25.59375 80.734375 -25.015625 80.109375 -24.171875 C 76.835938 -20.273438 73.203125 -16.429688 69.203125 -12.640625 C 65.203125 -8.847656 61.117188 -5.710938 56.953125 -3.234375 C 52.796875 -0.765625 48.925781 0.46875 45.34375 0.46875 C 41.757812 0.46875 39.226562 -0.738281 37.75 -3.15625 C 36.28125 -5.582031 35.546875 -8.320312 35.546875 -11.375 C 35.546875 -14.53125 36.125 -17.425781 37.28125 -20.0625 L 24.484375 -7.265625 C 21.640625 -4.421875 19.03125 -2.363281 16.65625 -1.09375 C 14.289062 0.164062 12.269531 0.796875 10.59375 0.796875 Z M 9.15625 -2.6875 C 13.6875 -2.6875 21.222656 -8.898438 31.765625 -21.328125 C 32.285156 -21.960938 34.125 -24.304688 37.28125 -28.359375 C 40.445312 -32.410156 44.925781 -38.335938 50.71875 -46.140625 C 49.976562 -47.398438 48.710938 -48.03125 46.921875 -48.03125 C 40.390625 -48.03125 31.648438 -42.867188 20.703125 -32.546875 C 10.378906 -22.960938 5.21875 -14.90625 5.21875 -8.375 C 5.21875 -4.582031 6.53125 -2.6875 9.15625 -2.6875 Z M 9.15625 -2.6875 "/></g></g></g><g fill="#000000" fill-opacity="1"><g transform="translate(265.41317, 131.881223)"><g/></g></g><g fill="#000000" fill-opacity="1"><g transform="translate(296.695733, 131.881223)"><g><path d="M 24.171875 18.328125 C 7.953125 16.960938 -0.15625 8.640625 -0.15625 -6.640625 C -0.15625 -15.691406 2.6875 -25.273438 8.375 -35.390625 C 11.75 -41.503906 15.988281 -47.457031 21.09375 -53.25 C 26.195312 -59.039062 31.773438 -64.28125 37.828125 -68.96875 C 43.890625 -73.65625 50.109375 -77.367188 56.484375 -80.109375 C 62.859375 -82.847656 68.992188 -84.21875 74.890625 -84.21875 C 85.316406 -84.21875 90.53125 -80.375 90.53125 -72.6875 C 90.53125 -67.519531 88.953125 -61.773438 85.796875 -55.453125 C 82.628906 -49.140625 79.414062 -45.140625 76.15625 -43.453125 C 75.84375 -43.347656 75.472656 -43.296875 75.046875 -43.296875 C 74.734375 -43.296875 74.578125 -43.398438 74.578125 -43.609375 L 79.796875 -52.140625 C 83.367188 -58.035156 85.15625 -63.195312 85.15625 -67.625 C 85.15625 -70.78125 84.3125 -73.78125 82.625 -76.625 C 80.945312 -79.46875 77.945312 -80.890625 73.625 -80.890625 C 68.363281 -80.890625 62.96875 -79.414062 57.4375 -76.46875 C 51.90625 -73.519531 46.554688 -69.625 41.390625 -64.78125 C 36.234375 -59.9375 31.546875 -54.585938 27.328125 -48.734375 C 23.117188 -42.890625 19.75 -37.125 17.21875 -31.4375 C 11.84375 -19.320312 9.15625 -9.523438 9.15625 -2.046875 C 9.15625 9.222656 14.898438 14.859375 26.390625 14.859375 C 37.335938 14.859375 52.1875 7.800781 70.9375 -6.3125 C 75.257812 -9.582031 80.816406 -14.164062 87.609375 -20.0625 C 94.398438 -25.957031 102.378906 -33.117188 111.546875 -41.546875 C 110.285156 -41.441406 108.707031 -41.3125 106.8125 -41.15625 C 104.914062 -41 102.703125 -40.710938 100.171875 -40.296875 C 99.117188 -40.078125 98.117188 -39.890625 97.171875 -39.734375 C 96.222656 -39.578125 95.328125 -39.5 94.484375 -39.5 C 92.378906 -39.707031 91.484375 -40.234375 91.796875 -41.078125 C 92.222656 -44.972656 94.222656 -46.921875 97.796875 -46.921875 C 101.066406 -46.503906 104.148438 -46.1875 107.046875 -45.96875 C 109.941406 -45.757812 112.707031 -45.65625 115.34375 -45.65625 C 119.445312 -49.445312 124.894531 -54.738281 131.6875 -61.53125 C 138.488281 -68.332031 146.578125 -76.679688 155.953125 -86.578125 C 168.054688 -99.328125 175.425781 -105.703125 178.0625 -105.703125 C 179.21875 -105.703125 179.796875 -104.648438 179.796875 -102.546875 C 179.796875 -101.703125 179.691406 -100.644531 179.484375 -99.375 C 179.273438 -98.113281 178.960938 -96.640625 178.546875 -94.953125 C 177.484375 -90.953125 176.375 -88.53125 175.21875 -87.6875 C 171.957031 -85.375 169.242188 -82.398438 167.078125 -78.765625 C 164.921875 -75.128906 162.738281 -71.097656 160.53125 -66.671875 C 158.3125 -62.140625 156.28125 -58.109375 154.4375 -54.578125 C 152.601562 -51.054688 150.945312 -47.925781 149.46875 -45.1875 L 164.796875 -45.5 C 168.585938 -45.5 170.484375 -45.238281 170.484375 -44.71875 C 170.484375 -44.613281 170.378906 -44.453125 170.171875 -44.234375 C 168.378906 -43.078125 160.789062 -42.023438 147.40625 -41.078125 C 137.613281 -22.015625 132.71875 -8.953125 132.71875 -1.890625 C 132.71875 2.953125 134.242188 5.375 137.296875 5.375 C 138.460938 5.375 139.9375 4.632812 141.71875 3.15625 C 143.40625 1.789062 144.460938 1.109375 144.890625 1.109375 C 144.890625 0.898438 144.941406 0.847656 145.046875 0.953125 C 145.148438 1.054688 145.097656 1.109375 144.890625 1.109375 C 144.359375 3.003906 142.800781 4.710938 140.21875 6.234375 C 137.644531 7.765625 134.9375 8.53125 132.09375 8.53125 C 129.457031 8.53125 127.71875 7.6875 126.875 6 C 126.03125 4.3125 125.609375 1.992188 125.609375 -0.953125 C 125.609375 -11.585938 129.664062 -25.117188 137.78125 -41.546875 L 118.8125 -41.078125 C 104.695312 -27.273438 90.53125 -15.160156 76.3125 -4.734375 C 53.664062 11.691406 36.285156 19.378906 24.171875 18.328125 Z M 139.203125 -45.65625 C 140.460938 -48.082031 142.988281 -52.476562 146.78125 -58.84375 C 150.570312 -65.21875 155.679688 -73.515625 162.109375 -83.734375 L 121.65625 -45.8125 Z M 139.203125 -45.65625 "/></g></g></g><g fill="#000000" fill-opacity="1"><g transform="translate(457.848346, 131.881223)"><g><path d="M -9.15625 29.859375 C -13.582031 27.441406 -15.796875 22.859375 -15.796875 16.109375 C -15.796875 8.847656 -9.847656 -3.578125 2.046875 -21.171875 C 13.429688 -38.128906 21.332031 -47.289062 25.75 -48.65625 C 26.175781 -48.769531 26.546875 -48.851562 26.859375 -48.90625 C 27.171875 -48.957031 27.488281 -48.984375 27.8125 -48.984375 C 29.601562 -48.984375 30.5 -47.035156 30.5 -43.140625 C 31.226562 -43.867188 32.515625 -44.578125 34.359375 -45.265625 C 36.203125 -45.953125 38.097656 -46.503906 40.046875 -46.921875 C 41.992188 -47.347656 43.441406 -47.613281 44.390625 -47.71875 C 48.710938 -47.925781 52.320312 -46.894531 55.21875 -44.625 C 58.113281 -42.363281 59.5625 -39.390625 59.5625 -35.703125 C 59.5625 -27.171875 54.453125 -18.90625 44.234375 -10.90625 C 34.972656 -3.632812 26.757812 0 19.59375 0 C 14.851562 0 11.585938 -0.265625 9.796875 -0.796875 C 7.265625 -1.523438 4.679688 -3.472656 2.046875 -6.640625 C 0.890625 -5.691406 -0.367188 -4.082031 -1.734375 -1.8125 C -3.109375 0.445312 -4.398438 2.921875 -5.609375 5.609375 C -6.816406 8.296875 -7.816406 10.953125 -8.609375 13.578125 C -9.398438 16.210938 -9.796875 18.425781 -9.796875 20.21875 C -9.796875 22.007812 -9.453125 23.507812 -8.765625 24.71875 C -8.078125 25.9375 -7.421875 27.070312 -6.796875 28.125 C -6.796875 28.226562 -6.769531 28.304688 -6.71875 28.359375 C -6.664062 28.410156 -6.640625 28.4375 -6.640625 28.4375 C -6.640625 28.96875 -6.925781 29.414062 -7.5 29.78125 C -8.082031 30.15625 -8.632812 30.179688 -9.15625 29.859375 Z M 17.53125 -4.421875 C 23.4375 -4.421875 30.234375 -7.425781 37.921875 -13.4375 C 46.984375 -20.59375 51.515625 -28.539062 51.515625 -37.28125 C 51.515625 -41.289062 49.035156 -43.296875 44.078125 -43.296875 C 39.546875 -43.296875 35.332031 -42.296875 31.4375 -40.296875 C 30.382812 -39.867188 28.671875 -38.492188 26.296875 -36.171875 C 23.929688 -33.859375 20.800781 -30.703125 16.90625 -26.703125 C 8.582031 -18.066406 4.421875 -12.535156 4.421875 -10.109375 C 4.421875 -8.210938 6.160156 -6.6875 9.640625 -5.53125 C 11.953125 -4.789062 14.582031 -4.421875 17.53125 -4.421875 Z M 17.53125 -4.421875 "/></g></g></g><g fill="#000000" fill-opacity="1"><g transform="translate(517.411607, 131.881223)"><g><path d="M -9.15625 29.859375 C -13.582031 27.441406 -15.796875 22.859375 -15.796875 16.109375 C -15.796875 8.847656 -9.847656 -3.578125 2.046875 -21.171875 C 13.429688 -38.128906 21.332031 -47.289062 25.75 -48.65625 C 26.175781 -48.769531 26.546875 -48.851562 26.859375 -48.90625 C 27.171875 -48.957031 27.488281 -48.984375 27.8125 -48.984375 C 29.601562 -48.984375 30.5 -47.035156 30.5 -43.140625 C 31.226562 -43.867188 32.515625 -44.578125 34.359375 -45.265625 C 36.203125 -45.953125 38.097656 -46.503906 40.046875 -46.921875 C 41.992188 -47.347656 43.441406 -47.613281 44.390625 -47.71875 C 48.710938 -47.925781 52.320312 -46.894531 55.21875 -44.625 C 58.113281 -42.363281 59.5625 -39.390625 59.5625 -35.703125 C 59.5625 -27.171875 54.453125 -18.90625 44.234375 -10.90625 C 34.972656 -3.632812 26.757812 0 19.59375 0 C 14.851562 0 11.585938 -0.265625 9.796875 -0.796875 C 7.265625 -1.523438 4.679688 -3.472656 2.046875 -6.640625 C 0.890625 -5.691406 -0.367188 -4.082031 -1.734375 -1.8125 C -3.109375 0.445312 -4.398438 2.921875 -5.609375 5.609375 C -6.816406 8.296875 -7.816406 10.953125 -8.609375 13.578125 C -9.398438 16.210938 -9.796875 18.425781 -9.796875 20.21875 C -9.796875 22.007812 -9.453125 23.507812 -8.765625 24.71875 C -8.078125 25.9375 -7.421875 27.070312 -6.796875 28.125 C -6.796875 28.226562 -6.769531 28.304688 -6.71875 28.359375 C -6.664062 28.410156 -6.640625 28.4375 -6.640625 28.4375 C -6.640625 28.96875 -6.925781 29.414062 -7.5 29.78125 C -8.082031 30.15625 -8.632812 30.179688 -9.15625 29.859375 Z M 17.53125 -4.421875 C 23.4375 -4.421875 30.234375 -7.425781 37.921875 -13.4375 C 46.984375 -20.59375 51.515625 -28.539062 51.515625 -37.28125 C 51.515625 -41.289062 49.035156 -43.296875 44.078125 -43.296875 C 39.546875 -43.296875 35.332031 -42.296875 31.4375 -40.296875 C 30.382812 -39.867188 28.671875 -38.492188 26.296875 -36.171875 C 23.929688 -33.859375 20.800781 -30.703125 16.90625 -26.703125 C 8.582031 -18.066406 4.421875 -12.535156 4.421875 -10.109375 C 4.421875 -8.210938 6.160156 -6.6875 9.640625 -5.53125 C 11.953125 -4.789062 14.582031 -4.421875 17.53125 -4.421875 Z M 17.53125 -4.421875 "/></g></g></g></g></g></svg>